<svg xmlns="http://www.w3.org/2000/svg" xmlns:xlink="http://www.w3.org/1999/xlink" width="2000" zoomAndPan="magnify" viewBox="0 0 1500 1499.999933" height="2000" preserveAspectRatio="xMidYMid meet" version="1.0"><defs><clipPath id="c9e5ca3368"><path d="M 692.257812 767.75 L 696.007812 767.75 L 696.007812 771.5 L 692.257812 771.5 Z M 692.257812 767.75 " clip-rule="nonzero"/></clipPath><clipPath id="38829ffd49"><path d="M 0.257812 0.75 L 4.007812 0.75 L 4.007812 4.5 L 0.257812 4.5 Z M 0.257812 0.75 " clip-rule="nonzero"/></clipPath><clipPath id="866ad79a74"><rect x="0" width="5" y="0" height="5"/></clipPath></defs><g clip-path="url(#c9e5ca3368)"><g transform="matrix(1, 0, 0, 1, 692, 767)"><g clip-path="url(#866ad79a74)"><g clip-path="url(#38829ffd49)"><path fill="#000000" d="M 0.257812 0.75 L 4.007812 0.75 L 4.007812 4.5 L 0.257812 4.5 Z M 0.257812 0.75 " fill-opacity="1" fill-rule="nonzero"/></g></g></g></g><path fill="#000000" d="M 1277.34375 117.1875 L 1037.941406 117.1875 C 1022.402344 117.1875 1007.5 111.015625 996.507812 100.023438 L 913.644531 17.160156 C 902.65625 6.171875 887.753906 0 872.214844 0 L 627.785156 0 C 612.246094 0 597.34375 6.171875 586.351562 17.160156 L 503.488281 100.023438 C 492.5 111.015625 477.597656 117.1875 462.058594 117.1875 L 222.65625 117.1875 C 157.9375 117.1875 105.46875 169.65625 105.46875 234.375 C 105.46875 299.09375 157.9375 351.5625 222.65625 351.5625 L 222.65625 1324.21875 C 222.65625 1421.300781 301.355469 1500 398.4375 1500 L 1101.5625 1500 C 1198.644531 1500 1277.34375 1421.300781 1277.34375 1324.21875 L 1277.34375 351.5625 C 1342.0625 351.5625 1394.53125 299.09375 1394.53125 234.375 C 1394.53125 169.65625 1342.0625 117.1875 1277.34375 117.1875 Z M 632.8125 1177.734375 C 632.8125 1226.277344 593.464844 1265.625 544.921875 1265.625 C 496.378906 1265.625 457.03125 1226.277344 457.03125 1177.734375 L 457.03125 556.640625 C 457.03125 508.097656 496.378906 468.75 544.921875 468.75 C 593.464844 468.75 632.8125 508.097656 632.8125 556.640625 Z M 1042.96875 1177.734375 C 1042.96875 1226.277344 1003.621094 1265.625 955.078125 1265.625 C 906.535156 1265.625 867.1875 1226.277344 867.1875 1177.734375 L 867.1875 556.640625 C 867.1875 508.097656 906.535156 468.75 955.078125 468.75 C 1003.621094 468.75 1042.96875 508.097656 1042.96875 556.640625 Z M 1042.96875 1177.734375 " fill-opacity="1" fill-rule="nonzero"/></svg>