<svg xmlns="http://www.w3.org/2000/svg" xmlns:xlink="http://www.w3.org/1999/xlink" width="2000" zoomAndPan="magnify" viewBox="0 0 1500 1499.999933" height="2000" preserveAspectRatio="xMidYMid meet" version="1.0"><defs><clipPath id="53cd402186"><path d="M 692.257812 767.75 L 696.007812 767.75 L 696.007812 771.5 L 692.257812 771.5 Z M 692.257812 767.75 " clip-rule="nonzero"/></clipPath><clipPath id="9458f95cc9"><path d="M 0.257812 0.75 L 4.007812 0.75 L 4.007812 4.5 L 0.257812 4.5 Z M 0.257812 0.75 " clip-rule="nonzero"/></clipPath><clipPath id="6be646a20a"><rect x="0" width="5" y="0" height="5"/></clipPath></defs><path fill="#000000" d="M 1259.542969 1385.496094 L 114.503906 1385.496094 L 114.503906 240.457031 L 801.527344 240.457031 L 801.527344 125.953125 L 114.503906 125.953125 C 51.296875 125.953125 0 177.25 0 240.457031 L 0 1385.496094 C 0 1448.703125 51.296875 1500 114.503906 1500 L 1259.542969 1500 C 1322.746094 1500 1374.046875 1448.703125 1374.046875 1385.496094 L 1374.046875 698.472656 L 1259.542969 698.472656 Z M 1259.542969 1385.496094 " fill-opacity="1" fill-rule="nonzero"/><path fill="#000000" d="M 458.015625 1043.816406 L 699.046875 1043.816406 L 1283.246094 459.617188 L 1040.382812 216.753906 L 458.015625 799.121094 Z M 458.015625 1043.816406 " fill-opacity="1" fill-rule="nonzero"/><path fill="#000000" d="M 1455 125.953125 L 1374.046875 45 C 1329.273438 0.230469 1256.792969 0.230469 1212.136719 45 L 1121.335938 135.800781 L 1364.199219 378.664062 L 1455 287.863281 C 1499.769531 243.089844 1499.769531 170.609375 1455 125.953125 Z M 1455 125.953125 " fill-opacity="1" fill-rule="nonzero"/><g clip-path="url(#53cd402186)"><g transform="matrix(1, 0, 0, 1, 692, 767)"><g clip-path="url(#6be646a20a)"><g clip-path="url(#9458f95cc9)"><path fill="#000000" d="M 0.257812 0.75 L 4.007812 0.75 L 4.007812 4.5 L 0.257812 4.5 Z M 0.257812 0.75 " fill-opacity="1" fill-rule="nonzero"/></g></g></g></g></svg>